<svg xmlns="http://www.w3.org/2000/svg" width="118.738" height="71.81">
  <path d="M108.635 18.775L59.216 8.621 9.793 18.779v-8.616L59.216.004l49.419 10.159z" fill="#030504"/>
  <g style="isolation:isolate" fill="#030504">
    <path d="M0 48.702V30.785a.94.94 0 01.47-.828 1.987 1.987 0 011.1-.3h9.634a.9.9 0 01.828.456 2.054 2.054 0 01.277 1.09 2.112 2.112 0 01-.29 1.132.909.909 0 01-.815.47H3.585v5.516h4.224a.937.937 0 01.814.414 1.733 1.733 0 01.29 1.022 1.639 1.639 0 01-.29.966.937.937 0 01-.814.414H3.585v7.564a.921.921 0 01-.538.828 2.776 2.776 0 01-2.526 0A.923.923 0 010 48.702zM13.583 43.678v-7.7q0-3.286 1.753-4.8a8.074 8.074 0 019.428 0q1.766 1.518 1.767 4.8v7.7q0 3.285-1.767 4.8a8.078 8.078 0 01-9.428 0q-1.754-1.514-1.753-4.8zm3.589 0q0 3.174 2.871 3.175 2.9 0 2.9-3.175v-7.7q0-3.176-2.9-3.175-2.871 0-2.871 3.175zM29.512 43.678v-12.92a.885.885 0 01.524-.828 3.05 3.05 0 012.54 0 .886.886 0 01.524.828v12.92q0 3.174 3.037 3.175t3.037-3.175v-12.92a.884.884 0 01.525-.828 3.048 3.048 0 012.539 0 .885.885 0 01.525.828v12.92a5.936 5.936 0 01-1.809 4.79 8.37 8.37 0 01-9.634.014q-1.809-1.518-1.808-4.804zM45.993 48.702V30.758a1.06 1.06 0 01.331-.774 1.127 1.127 0 01.828-.331h5.466q6.543 0 6.543 5.77a6.164 6.164 0 01-.98 3.644 4.847 4.847 0 01-2.636 1.877l3.616 6.709a.67.67 0 01.138.442 1.676 1.676 0 01-.718 1.284 2.344 2.344 0 01-1.518.593 1.36 1.36 0 01-1.242-.856l-3.92-7.619h-2.32v7.205a.922.922 0 01-.524.828 2.776 2.776 0 01-2.526 0 .921.921 0 01-.538-.828zm3.588-10.021h3.037q2.955 0 2.954-2.926a2.61 2.61 0 00-2.954-2.954h-3.037zM60.182 31.214a2.033 2.033 0 01.291-1.09.931.931 0 01.842-.471h11.678a.932.932 0 01.841.471 2.2 2.2 0 01-.013 2.206.941.941 0 01-.828.471h-4.031v15.895a.929.929 0 01-.539.833 2.768 2.768 0 01-2.526 0 .931.931 0 01-.524-.833V32.801h-4.058a.946.946 0 01-.829-.458 2 2 0 01-.304-1.129zM76.084 48.702V30.785a.942.942 0 01.47-.828 1.993 1.993 0 011.105-.3h9.828a.93.93 0 01.841.47 2 2 0 01.29 1.076 2.04 2.04 0 01-.3 1.132.94.94 0 01-.828.47h-7.814v5.516h4.2a.968.968 0 01.83.428 1.7 1.7 0 01.3 1.008 1.652 1.652 0 01-.289.952.955.955 0 01-.843.428h-4.2v5.549h7.814a.943.943 0 01.828.469 2.047 2.047 0 01.3 1.132 2 2 0 01-.29 1.076.928.928 0 01-.841.47h-9.829a1.976 1.976 0 01-1.105-.3.94.94 0 01-.467-.831zM90.716 48.702V30.785a.94.94 0 01.47-.828 1.988 1.988 0 011.1-.3h9.829a.929.929 0 01.841.47 2 2 0 01.29 1.076 2.032 2.032 0 01-.3 1.132.94.94 0 01-.828.47h-7.813v5.516h4.2a.963.963 0 01.828.428 1.692 1.692 0 01.3 1.008 1.66 1.66 0 01-.29.952.954.954 0 01-.842.428h-4.2v5.549h7.813a.943.943 0 01.828.469 2.039 2.039 0 01.3 1.132 2 2 0 01-.29 1.076.927.927 0 01-.841.47h-9.829a1.972 1.972 0 01-1.1-.3.938.938 0 01-.466-.831zM105.348 48.702V30.785a.917.917 0 01.524-.842 2.6 2.6 0 011.27-.29 2.689 2.689 0 011.518.359 4.474 4.474 0 011.161 1.547l5.328 10.3v-11.1a.886.886 0 01.524-.828 3.05 3.05 0 012.54 0 .887.887 0 01.525.828v17.944a.922.922 0 01-.539.828 2.5 2.5 0 01-1.256.3 2.155 2.155 0 01-2.071-1.132l-5.935-11.1v11.1a.923.923 0 01-.538.828 2.778 2.778 0 01-2.527 0 .924.924 0 01-.524-.825z"/>
  </g>
  <g style="isolation:isolate" fill="#030504">
    <path d="M13.723 62.497h.845v1.371h-.292l-2.762 7.789h-1.2zm-1.466 5.568h4.063l.381.971h-4.825zm2.044-4.2v-1.371h.552l3.4 9.16h-1.2zM19.303 62.497h3.434a3.3 3.3 0 011.54.34 2.483 2.483 0 011.018.952 2.778 2.778 0 01.362 1.439v.011a2.778 2.778 0 01-.492 1.648 2.547 2.547 0 01-1.349.968l2.12 3.8h-1.339l-1.962-3.625h-2.189v3.625h-1.143zm3.332 4.527a1.9 1.9 0 001.362-.457 1.713 1.713 0 00.479-1.3v-.012a1.642 1.642 0 00-.5-1.279 1.983 1.983 0 00-1.388-.461h-2.142v3.506zM28.706 71.221a3.873 3.873 0 01-1.456-1.648 5.7 5.7 0 01-.514-2.5v-.007a5.686 5.686 0 01.514-2.5 3.861 3.861 0 011.453-1.641 4.135 4.135 0 012.216-.581 4.076 4.076 0 011.733.362 3.591 3.591 0 011.3 1.009 3.433 3.433 0 01.7 1.518l.012.063h-1.155l-.045-.14a2.547 2.547 0 00-.53-.949 2.341 2.341 0 00-.859-.6 3.005 3.005 0 00-1.156-.209 2.788 2.788 0 00-1.591.453 2.956 2.956 0 00-1.046 1.276 4.666 4.666 0 00-.372 1.938v.007a4.7 4.7 0 00.372 1.94 2.963 2.963 0 001.05 1.285 2.773 2.773 0 001.587.457 2.945 2.945 0 001.146-.21 2.339 2.339 0 00.866-.618 2.847 2.847 0 00.559-1.013l.019-.056h1.155l-.008.064a3.449 3.449 0 01-1.993 2.533 4.461 4.461 0 01-3.953-.228zM36.01 62.497h1.146v3.961h5.027v-3.961h1.143v9.16h-1.143v-4.17h-5.027v4.17h-1.143zM45.1 62.497h1.143v9.16H45.1zM50.336 63.526h-2.887v-1.029h6.919v1.029h-2.889v8.131h-1.143zM55.574 62.497h5.674v1.029h-4.532v2.939h4.3v1.016h-4.3v3.148h4.532v1.028h-5.674zM64.368 71.221a3.875 3.875 0 01-1.457-1.648 5.7 5.7 0 01-.514-2.5v-.007a5.686 5.686 0 01.514-2.5 3.863 3.863 0 011.454-1.641 4.131 4.131 0 012.215-.581 4.076 4.076 0 011.733.362 3.6 3.6 0 011.305 1.009 3.431 3.431 0 01.695 1.518l.013.063H69.17l-.045-.14a2.548 2.548 0 00-.53-.949 2.333 2.333 0 00-.859-.6 3 3 0 00-1.156-.209 2.782 2.782 0 00-1.59.453 2.951 2.951 0 00-1.047 1.276 4.667 4.667 0 00-.371 1.938v.007a4.7 4.7 0 00.371 1.94 2.964 2.964 0 001.05 1.285 2.773 2.773 0 001.587.457 2.945 2.945 0 001.146-.21 2.339 2.339 0 00.866-.618 2.847 2.847 0 00.559-1.013l.019-.056h1.156l-.013.062a3.449 3.449 0 01-1.993 2.533 4.459 4.459 0 01-3.952-.228zM73.543 63.526h-2.887v-1.029h6.919v1.029h-2.889v8.131h-1.143zM80.472 71.384a3.021 3.021 0 01-1.254-1.184 3.448 3.448 0 01-.437-1.755v-5.948h1.142v5.872a2.344 2.344 0 00.657 1.72 2.878 2.878 0 003.685 0 2.362 2.362 0 00.647-1.72v-5.872h1.144v5.948a3.467 3.467 0 01-.435 1.755 3.005 3.005 0 01-1.248 1.184 4.676 4.676 0 01-3.9 0zM87.832 62.497h3.434a3.3 3.3 0 011.54.34 2.492 2.492 0 011.019.952 2.778 2.778 0 01.361 1.439v.011a2.785 2.785 0 01-.491 1.648 2.55 2.55 0 01-1.35.968l2.12 3.8h-1.339l-1.962-3.625h-2.189v3.625h-1.143zm3.332 4.527a1.9 1.9 0 001.363-.457 1.716 1.716 0 00.478-1.3v-.012a1.642 1.642 0 00-.5-1.279 1.982 1.982 0 00-1.387-.461h-2.139v3.506zM95.62 62.497h5.675v1.029h-4.532v2.939h4.3v1.016h-4.3v3.148h4.532v1.028H95.62z"/>
  </g>
</svg>
