<svg xmlns="http://www.w3.org/2000/svg" width="167.78" height="62.045">
  <g style="isolation:isolate" fill="#030504">
    <path d="M25.454 51.85h1.142v3.961h5.028V51.85h1.144v9.16h-1.142v-4.17h-5.028v4.17h-1.142zM36.168 60.584a3.809 3.809 0 01-1.464-1.636 5.719 5.719 0 01-.514-2.514v-.014a5.653 5.653 0 01.518-2.51 3.826 3.826 0 011.466-1.634 4.637 4.637 0 014.484 0 3.807 3.807 0 011.46 1.634 5.681 5.681 0 01.515 2.51v.014a5.705 5.705 0 01-.515 2.514 3.817 3.817 0 01-1.456 1.636 4.657 4.657 0 01-4.494 0zm3.878-.929a2.916 2.916 0 001.05-1.28 4.718 4.718 0 00.369-1.941v-.014a4.725 4.725 0 00-.371-1.948 2.922 2.922 0 00-5.361 0 4.667 4.667 0 00-.375 1.951v.014a4.676 4.676 0 00.375 1.948 2.935 2.935 0 001.06 1.277 3.153 3.153 0 003.253 0zM44.052 51.85h1.316l3.174 7.719h.038l3.174-7.719h1.32v9.16h-1.067v-7.078h-.52l1.238-1.828-3.682 8.906h-.965l-3.681-8.906 1.237 1.828h-.52v7.078h-1.067zM54.856 51.85h5.675v1.029h-4.532v2.939h4.3v1.015h-4.3v3.149h4.532v1.028h-5.675zM64.701 51.85h5.675v1.029h-4.532v2.939h4.3v1.015h-4.3v3.149h4.532v1.028h-5.675zM73.503 60.584a3.809 3.809 0 01-1.464-1.636 5.719 5.719 0 01-.514-2.514v-.014a5.639 5.639 0 01.518-2.51 3.82 3.82 0 011.466-1.634 4.637 4.637 0 014.484 0 3.807 3.807 0 011.46 1.634 5.681 5.681 0 01.515 2.51v.014a5.7 5.7 0 01-.515 2.514 3.817 3.817 0 01-1.456 1.636 4.657 4.657 0 01-4.494 0zm3.875-.929a2.938 2.938 0 001.047-1.28 4.718 4.718 0 00.368-1.941v-.014a4.709 4.709 0 00-.371-1.948 2.913 2.913 0 00-5.348 0 4.667 4.667 0 00-.375 1.951v.014a4.709 4.709 0 00.372 1.948 2.787 2.787 0 002.682 1.727 2.863 2.863 0 001.625-.457zm-1.8-1.266h1.282l2.66 3.656h-1.282zM83.081 60.737a3.027 3.027 0 01-1.254-1.184 3.448 3.448 0 01-.438-1.755V51.85h1.143v5.872a2.346 2.346 0 00.657 1.72 2.878 2.878 0 003.685 0 2.367 2.367 0 00.647-1.72V51.85h1.147v5.947a3.467 3.467 0 01-.435 1.755 3.015 3.015 0 01-1.247 1.184 4.688 4.688 0 01-3.9 0zM90.441 51.85h1.143v9.16h-1.143zM93.361 51.85h1.143v9.16h-1.143zm.571 4.875h2.4a2.127 2.127 0 001.523-.511 1.85 1.85 0 00.54-1.412v-.013a1.851 1.851 0 00-.54-1.416 2.138 2.138 0 00-1.523-.507h-2.4V51.85h2.692a3.069 3.069 0 011.523.369 2.682 2.682 0 011.038 1.027 3.031 3.031 0 01.378 1.531v.012a3.064 3.064 0 01-.378 1.537 2.718 2.718 0 01-1.038 1.041 3.029 3.029 0 01-1.523.374h-2.692zM100.868 51.85h1.321l3.173 7.719h.039l3.173-7.719h1.321v9.16h-1.067v-7.078h-.52l1.237-1.828-3.681 8.906h-.965l-3.682-8.906 1.238 1.828h-.52v7.078h-1.067zM111.674 51.85h5.675v1.029h-4.532v2.939h4.3v1.015h-4.3v3.149h4.532v1.028h-5.675zM118.853 51.85h1.115l6.011 8.627-1.447-1.4h.507v-7.23h1.13v9.16h-1.11l-6.012-8.627 1.447 1.4h-.507v7.23h-1.13zM130.26 52.879h-2.892V51.85h6.919v1.029H131.4v8.131h-1.143z"/>
  </g>
  <path d="M105.155 7.689l.532 4.253-3.88-1.82-3.88 1.82.532-4.253-2.93-3.128 4.209-.808L101.807 0l2.069 3.753 4.209.808zm-12.339 4.253l-3.88-1.82-3.88 1.82.532-4.253-2.93-3.128 4.209-.808L88.936 0l2.069 3.753 4.209.808-2.93 3.128zm-13.386 0l-3.88-1.82-3.88 1.82.532-4.253-2.93-3.128 4.209-.808L75.55 0l2.069 3.753 4.209.808-2.93 3.128zm-12.871 0l-3.88-1.82-3.88 1.82.532-4.253-2.93-3.128 4.209-.808L62.679 0l2.069 3.753 4.209.808-2.93 3.128z" fill="#030504"/>
  <g style="isolation:isolate" fill="#030504">
    <path d="M0 42.541V25.874a.742.742 0 01.353-.643 1.446 1.446 0 01.832-.24h8.977a.735.735 0 01.656.354 1.457 1.457 0 01.227.806 1.491 1.491 0 01-.24.858.742.742 0 01-.643.353H2.673v5.774h3.883a.769.769 0 01.643.315 1.236 1.236 0 01.24.77 1.2 1.2 0 01-.227.719.758.758 0 01-.656.314H2.673v5.8h7.489a.742.742 0 01.643.353 1.49 1.49 0 01.24.857 1.466 1.466 0 01-.227.808.735.735 0 01-.656.352H1.185a1.446 1.446 0 01-.832-.239.743.743 0 01-.353-.644zM22.013 42.541V25.848a.689.689 0 01.391-.642 2.187 2.187 0 011.891 0 .691.691 0 01.391.642v15.206h6.556a.662.662 0 01.592.353 1.719 1.719 0 010 1.665.661.661 0 01-.592.352h-8.044a1.443 1.443 0 01-.832-.239.743.743 0 01-.353-.644zM42.868 42.541V25.874a.742.742 0 01.353-.643 1.447 1.447 0 01.833-.24h8.976a.733.733 0 01.656.354 1.457 1.457 0 01.227.806 1.49 1.49 0 01-.24.858.742.742 0 01-.643.353h-7.492v5.774h3.884a.771.771 0 01.643.315 1.242 1.242 0 01.239.77 1.2 1.2 0 01-.227.719.757.757 0 01-.655.314h-3.884v5.8h7.489a.742.742 0 01.643.353 1.489 1.489 0 01.24.857 1.466 1.466 0 01-.227.808.734.734 0 01-.656.352h-8.976a1.447 1.447 0 01-.833-.239.743.743 0 01-.35-.644zM64.475 37.952v-7.338a5.41 5.41 0 011.538-4.261 5.859 5.859 0 014.034-1.362 6.468 6.468 0 014.148 1.273 4.118 4.118 0 011.6 3.392 1.305 1.305 0 01-.315 1.009 1.53 1.53 0 01-1.021.277q-1.311 0-1.337-.883a2.691 2.691 0 00-3-2.7q-2.976 0-2.975 3.252v7.338q0 3.253 2.975 3.253a2.94 2.94 0 002.219-.81 3.422 3.422 0 00.781-2.458v-2.077h-2.546a.735.735 0 01-.63-.312 1.25 1.25 0 01-.228-.76 1.226 1.226 0 01.228-.722.726.726 0 01.63-.324h4.337a.824.824 0 01.643.264.929.929 0 01.239.644v3.3a5.381 5.381 0 01-1.551 4.262 6.9 6.9 0 01-8.232 0 5.411 5.411 0 01-1.537-4.257zM86.193 42.317a.762.762 0 01.025-.227l5.007-16.343q.321-.907 1.793-.906 1.5 0 1.819.844l4.993 16.34a.9.9 0 01.05.238.974.974 0 01-.588.818 2.43 2.43 0 01-1.246.343c-.531 0-.86-.182-.988-.549l-1.044-3.611h-6.2l-1.032 3.6c-.117.373-.428.558-.931.558a2.1 2.1 0 01-1.132-.327.93.93 0 01-.526-.778zm4.23-5.171h5l-2.527-8.655zM110.491 42.541V25.874q0-.882 1.337-.883a1.88 1.88 0 011.135.315 3.465 3.465 0 01.882 1.2l5.6 10.918V25.848a.688.688 0 01.39-.642 2.187 2.187 0 011.891 0 .688.688 0 01.39.642v16.693a.726.726 0 01-.39.644 1.774 1.774 0 01-.945.239 1.7 1.7 0 01-1.589-.983l-6.024-11.473v11.573a.728.728 0 01-.39.644 1.964 1.964 0 01-1.878 0 .724.724 0 01-.409-.644zM134.093 37.952v-7.338a5.384 5.384 0 011.551-4.261 5.907 5.907 0 014.047-1.362 6.4 6.4 0 014.147 1.273 4.04 4.04 0 011.576 3.291 1.512 1.512 0 01-.3 1.1 1.477 1.477 0 01-1.035.29q-1.311 0-1.336-.883-.15-2.7-2.95-2.7-3.025 0-3.025 3.252v7.338q0 3.253 3.076 3.253a3.8 3.8 0 001.513-.264 1.717 1.717 0 00.87-.77 4.384 4.384 0 00.365-.883 5.742 5.742 0 00.151-.932q.076-.882 1.312-.883a1.533 1.533 0 011.046.29 1.477 1.477 0 01.315 1.1 4.2 4.2 0 01-1.589 3.4 6.316 6.316 0 01-4.16 1.312 5.862 5.862 0 01-4.034-1.362 5.411 5.411 0 01-1.54-4.261zM156.736 42.541V25.874a.741.741 0 01.352-.643 1.444 1.444 0 01.832-.24h8.977a.732.732 0 01.656.354 1.457 1.457 0 01.227.806 1.5 1.5 0 01-.24.858.742.742 0 01-.643.353h-7.489v5.774h3.883a.771.771 0 01.644.315 1.242 1.242 0 01.239.77 1.2 1.2 0 01-.227.719.758.758 0 01-.656.314h-3.883v5.8h7.489a.742.742 0 01.643.353 1.5 1.5 0 01.24.857 1.466 1.466 0 01-.227.808.733.733 0 01-.656.352h-8.977a1.443 1.443 0 01-.832-.239.742.742 0 01-.352-.644z"/>
  </g>
</svg>
