<svg xmlns="http://www.w3.org/2000/svg" width="140.863" height="34.03">
  <path d="M24.978 15.19a7.411 7.411 0 117.411-7.411 7.409 7.409 0 01-7.41 7.41zM7.415 33.854a7.411 7.411 0 117.411-7.411 7.411 7.411 0 01-7.411 7.411zm0-18.664a7.411 7.411 0 117.411-7.411 7.409 7.409 0 01-7.41 7.41zm17.566 3.843a7.411 7.411 0 11-7.411 7.411 7.411 7.411 0 017.41-7.41zM38.081 0h2.93v34.03h-2.93z" fill="#030504"/>
  <g style="isolation:isolate" fill="#030504">
    <path d="M46.826 30.579V3.09a1.213 1.213 0 01.56-.995 2.263 2.263 0 011.389-.415h7.34a9.9 9.9 0 016.778 2.235q2.55 2.238 2.55 7.007v11.817q0 4.768-2.55 7.007a9.9 9.9 0 01-6.779 2.239h-7.339a2.256 2.256 0 01-1.389-.415 1.21 1.21 0 01-.56-.991zm4.395-2.487h4.894q4.934 0 4.934-5.349V10.926q0-5.349-4.934-5.349h-4.893zM70.294 22.992V10.926q0-4.767 2.529-7.007a11.352 11.352 0 0113.538 0q2.55 2.238 2.55 7.007v12.066q0 4.769-2.55 7.007a11.352 11.352 0 01-13.538 0q-2.529-2.238-2.529-7.007zm4.4 0q0 5.349 4.892 5.349a4.848 4.848 0 003.649-1.327 5.579 5.579 0 001.28-4.022V10.926a5.58 5.58 0 00-1.285-4.022 4.844 4.844 0 00-3.649-1.327q-4.892 0-4.892 5.349zM94.051 30.538V3.877a2.079 2.079 0 01.622-1.658 2.322 2.322 0 011.576-.539 3.459 3.459 0 011.97.518 5.238 5.238 0 011.513 1.97l5.8 10.987 5.888-10.987a5.372 5.372 0 011.493-1.97 3.351 3.351 0 011.949-.518 2.324 2.324 0 011.576.539 2.079 2.079 0 01.622 1.658v26.661a1.2 1.2 0 01-.643 1.058 3.231 3.231 0 01-3.089 0 1.191 1.191 0 01-.664-1.058v-19.9l-5.549 10.277a1.856 1.856 0 01-1.618.995 1.6 1.6 0 01-1.493-.995l-5.555-10.532v20.151a1.2 1.2 0 01-.643 1.058 3.231 3.231 0 01-3.089 0 1.193 1.193 0 01-.666-1.054zM122.246 22.992V10.926q0-4.767 2.53-7.007a11.35 11.35 0 0113.537 0q2.55 2.238 2.55 7.007v12.066q0 4.769-2.55 7.007a11.35 11.35 0 01-13.537 0q-2.53-2.238-2.53-7.007zm4.4 0q0 5.349 4.893 5.349a4.848 4.848 0 003.649-1.327 5.583 5.583 0 001.285-4.022V10.926a5.585 5.585 0 00-1.285-4.022 4.844 4.844 0 00-3.649-1.327q-4.893 0-4.893 5.349z"/>
  </g>
</svg>
