<svg xmlns="http://www.w3.org/2000/svg" width="177.843" height="30">
  <g style="isolation:isolate" fill="#030504">
    <path d="M50.252 17.005c0 3 1.265 4.664 3.5 4.664a3 3 0 003.211-3.07h3.046v.3c0 3.211-2.648 5.437-6.281 5.437-4.265 0-6.691-2.8-6.691-7.359v-1.828c0-4.594 2.426-7.418 6.691-7.418 3.645 0 6.281 2.285 6.281 5.625v.293h-3.046a3.086 3.086 0 00-3.211-3.246c-2.239 0-3.5 1.687-3.5 4.734zM68.87 24.341c-4.278 0-6.844-2.707-6.844-7.218v-2.051c0-4.547 2.6-7.336 6.867-7.336 4.289 0 6.844 2.812 6.844 7.336v2.051c0 4.511-2.59 7.218-6.867 7.218zm.012-13.968c-2.11 0-3.633 1.593-3.633 4.675v2.086c0 3.082 1.523 4.571 3.633 4.571s3.644-1.489 3.644-4.571v-2.086c0-3.082-1.523-4.675-3.644-4.675zM78.488 24.037v-16h2.636l7.09 10.64h.106V8.037h2.953v16h-2.625l-7.114-10.7h-.093v10.7zM96.718 19.49c.106 1.242 1.219 2.343 3.317 2.343 1.945 0 3.012-.89 3.012-2.214 0-1.125-.809-1.7-2.461-2.075l-2.473-.574c-2.191-.492-4.055-1.734-4.055-4.418 0-3.117 2.672-4.84 5.965-4.84 3.434 0 5.895 1.875 5.942 4.746h-2.977c-.105-1.2-1.055-2.261-2.977-2.261-1.7 0-2.789.808-2.789 2.109 0 .961.75 1.617 2.192 1.934l2.484.574c2.367.516 4.3 1.652 4.3 4.512 0 3.14-2.484 5.015-6.34 5.015-4.641 0-6.152-2.625-6.2-4.851zM111.833 24.037V10.689h-4.547V8.041h12.258v2.648h-4.547v13.348zM133.416 13.103a4.68 4.68 0 01-2.918 4.488l3.222 6.446h-3.539l-2.8-5.965h-2.848v5.965h-3.117v-16h6.386c3.797.004 5.614 2.242 5.614 5.066zm-6.117 2.59c1.781 0 2.847-.879 2.847-2.531a2.508 2.508 0 00-2.8-2.637h-2.813v5.168zM145.753 18.201V8.041h3.164v10.593c0 3.387-2.438 5.707-6.457 5.707s-6.469-2.32-6.469-5.707V8.041h3.164v10.16a3.3 3.3 0 106.6 0zM154.691 17.005c0 3 1.266 4.664 3.5 4.664a3 3 0 003.211-3.07h3.047v.3c0 3.211-2.649 5.437-6.281 5.437-4.266 0-6.692-2.8-6.692-7.359v-1.828c0-4.594 2.426-7.418 6.692-7.418 3.644 0 6.281 2.285 6.281 5.625v.293h-3.047a3.085 3.085 0 00-3.211-3.246c-2.238 0-3.5 1.687-3.5 4.734zM170.133 24.037V10.689h-4.547V8.041h12.257v2.648h-4.546v13.348z"/>
  </g>
  <path d="M22 25V4.575h8V25zM11 0h8v30h-8zM0 4.575h8V25H0z" fill="#030504"/>
</svg>
