<svg xmlns="http://www.w3.org/2000/svg" width="150" height="52.01">
  <path fill="#030504" d="M0 0h150v52.01H0z"/>
  <g style="isolation:isolate" fill="#fff">
    <path d="M61.078 37.313h-2.76l.824-3.895h1.3l-.722 3.409h1.462zM67.851 36.703a.776.776 0 01-.265.444.733.733 0 01-.474.166h-2.19a.494.494 0 01-.409-.166.508.508 0 01-.071-.444l.565-2.676a.766.766 0 01.265-.442.724.724 0 01.474-.167h2.19a.491.491 0 01.409.167.5.5 0 01.071.442zm-1.518-2.8l-.621 2.924h.813l.621-2.924zM74.516 37.313h-1.3l-.373-2.445-.519 2.445h-1.3l.824-3.895h1.3l.373 2.449.519-2.449h1.304zM81.363 36.703a.778.778 0 01-.266.444.731.731 0 01-.474.166h-2.8l.825-3.895h2.8a.49.49 0 01.409.167.5.5 0 01.071.442zm-1.519-2.8l-.621 2.924h.813l.621-2.924zM88.079 36.703a.777.777 0 01-.266.444.729.729 0 01-.474.166H85.15a.5.5 0 01-.41-.166.5.5 0 01-.07-.444l.564-2.676a.776.776 0 01.265-.442.728.728 0 01.474-.167h2.19a.492.492 0 01.41.167.5.5 0 01.071.442zm-1.519-2.8l-.62 2.924h.812l.621-2.924zM94.744 37.313h-1.3l-.374-2.445-.518 2.445h-1.3l.824-3.895h1.3l.373 2.449.52-2.449h1.3z"/>
  </g>
  <g style="isolation:isolate" fill="#fff">
    <path d="M33.715 20.35H30.3l-.606 2.847h2.65l-.238 1.134h-2.65l-.843 3.982H25.58l1.622-7.673a1.809 1.809 0 01.62-1.035 1.694 1.694 0 011.107-.389h5.023zM48.837 28.313h-3.033l-.435-2.848h-.857l-.606 2.848h-3.032l1.925-9.1h6.539a1.13 1.13 0 01.949.389 1.193 1.193 0 01.159 1.035l-.712 3.4a1.789 1.789 0 01-.482.916 1.683 1.683 0 01-.864.468zm-3.243-7.963l-.844 3.981h1.885l.844-3.981zM59.305 28.313a1.148 1.148 0 01-.956-.389 1.18 1.18 0 01-.165-1.035l1.319-6.249a1.807 1.807 0 01.619-1.035 1.7 1.7 0 011.108-.389h5.023l-.238 1.134h-3.414l-.607 2.847h2.65l-.237 1.134h-2.65l-.606 2.848h3.414l-.237 1.134zM74.598 28.313a1.147 1.147 0 01-.955-.389 1.174 1.174 0 01-.165-1.035l1.318-6.249a1.809 1.809 0 01.62-1.035 1.694 1.694 0 011.107-.389h5.021l-.238 1.134h-3.412l-.606 2.847h2.65l-.238 1.134h-2.649l-.607 2.848h3.415l-.238 1.134zM97.867 28.313h-3.023l1.121-5.274-3.046 5.274h-1.235l-.87-5.274-1.12 5.274H88.56l1.925-9.1h2.742l.83 4.97 2.875-4.97h2.86zM114.953 28.313h-3.032l.607-2.848h-1.9l-.606 2.848h-3.033l1.623-7.673a1.8 1.8 0 01.619-1.035 1.694 1.694 0 011.107-.389h5.116a1.147 1.147 0 01.955.389 1.174 1.174 0 01.165 1.035zm-3.243-7.963l-.844 3.981h1.9l.844-3.981zM132.144 28.313h-3.03l-.871-5.709-1.212 5.709h-3.033l1.925-9.1h3.032l.87 5.722 1.213-5.722h3.033z"/>
  </g>
</svg>
