<svg xmlns="http://www.w3.org/2000/svg" viewBox="0 0 40 40">
  <path d="M38 15.1l-.5-.5c-.3-.3-.4-.6-.3-1l.1-.7c.3-1.8-.1-3.7-1.2-5.2C35 6.2 33.3 5.2 31.5 5h-.2c-.4-.1-.7-.3-.9-.7l-.2-.3c-1.1-2.5-3.5-4-6.2-4-1.2 0-2.4.3-3.4.9-.2.1-.4.2-.6.2s-.4-.1-.6-.2C18.4.3 17.2 0 16 0c-2.7 0-5.1 1.6-6.2 4l-.1.3c-.2.4-.5.6-.9.7h-.3C6.7 5.2 5 6.2 3.9 7.7 2.8 9.2 2.4 11.1 2.7 13l.1.7c.1.4-.1.8-.3 1l-.5.4c-1.3 1.3-2 3-2 4.9s.7 3.6 2 4.9l.5.5c.3.3.4.6.3 1l-.1.6c-.3 1.8.1 3.7 1.2 5.2C5 33.8 6.7 34.8 8.5 35h.2c.4.1.7.3.9.7l.2.3c1.1 2.5 3.5 4 6.2 4 1.2 0 2.4-.3 3.4-.9.2-.1.4-.2.6-.2s.4.1.6.2c1 .6 2.2.9 3.4.9 2.7 0 5.1-1.6 6.2-4l.1-.3c.2-.4.5-.6.9-.7h.2c1.8-.2 3.5-1.2 4.6-2.7 1.1-1.5 1.5-3.4 1.2-5.2l-.1-.7c-.1-.4.1-.8.3-1l.5-.5c1.3-1.3 2-3 2-4.9s-.6-3.6-1.9-4.9zm-2 7.7l-.5.5c-.9.9-1.4 2.3-1.1 3.6l.1.7c.4 2.2-1.1 4.4-3.4 4.7h-.2c-1.4.2-2.6 1.1-3.1 2.3l-.1.3c-.7 1.5-2.1 2.4-3.6 2.4-.7 0-1.4-.2-2-.5-.6-.4-1.3-.5-2-.5s-1.4.2-2 .5c-.6.4-1.3.5-2 .5-1.5 0-3-.9-3.6-2.4l-.1-.3c-.6-1.3-1.7-2.2-3.1-2.3h-.2c-2.3-.3-3.8-2.4-3.4-4.7l.1-.7c.2-1.3-.2-2.6-1.1-3.6l-.7-.5c-1.6-1.6-1.6-4.1 0-5.7l.5-.5c.9-.9 1.4-2.3 1.1-3.6l-.1-.7c-.4-2.2 1.1-4.4 3.4-4.7h.2c1.4-.2 2.6-1.1 3.1-2.3l.1-.3c.7-1.3 2.2-2.2 3.7-2.2.7 0 1.4.2 2 .5.6.4 1.3.5 2 .5s1.4-.2 2-.5c.6-.4 1.3-.5 2-.5 1.5 0 3 .9 3.6 2.4l.1.3c.6 1.3 1.7 2.2 3.1 2.3h.2c2.3.3 3.8 2.4 3.4 4.7l-.1.7c-.2 1.3.2 2.6 1.1 3.6l.5.5c1.7 1.4 1.7 4 .1 5.5zM28.4 17c-.4-.4-.9-.6-1.4-.7h-2.5l.3-3.5-4.1-2.4-4.1 5.9h-5.5v11.3H27l2-8.6v-.3c0-.5-.1-1.1-.4-1.5l-.2-.2zm-14.3 2.2h2v5.6h-2v-5.6zm10.7 5.6h-5.9v-6.6l2.7-4 .2.1-.4 4.8H26l-1.2 5.7z" fill="#a8977b"/>
</svg>
