<svg xmlns="http://www.w3.org/2000/svg" viewBox="0 0 40 40">
  <path d="M40 17.6l-3.8-7.9h-4V5.9H6.3v6.4H1.8v2.8h4.5v2.8H0v2.8h6.3v9.2h4.3c.6 2.4 2.8 4.2 5.4 4.2s4.7-1.8 5.4-4.2h4.1c.6 2.4 2.8 4.2 5.4 4.2 2.6 0 4.7-1.8 5.4-4.2H40V17.6zm-7.8-5.1h2.2l2.7 5.4h-4.8v-5.4zM9.1 20.7h7v-2.8h-7v-2.8H18v-2.8H9.1V8.7h20.3v14.5c-1.9.5-3.5 2-4 4h-4.1c-.5-2.4-2.7-4.2-5.3-4.2s-4.7 1.8-5.4 4.2H9.1v-6.5zM16 31.3c-1 0-1.9-.6-2.4-1.4l-.3-.6v-.1c-.1-.2-.1-.5-.1-.7s0-.5.1-.7v-.1c.1-.2.1-.4.3-.6.5-.8 1.4-1.4 2.4-1.4s1.9.6 2.4 1.4l.3.6v.1c.1.2.1.5.1.7s0 .5-.1.7v.1c-.1.2-.1.4-.3.6-.5.9-1.4 1.4-2.4 1.4zm14.8 0c-1 0-1.9-.6-2.4-1.4l-.3-.6v-.1c0-.2-.1-.4-.1-.7s0-.5.1-.7v-.1c.1-.2.1-.4.3-.6.2-.4.6-.8 1-1l.6-.3h.1c.2-.1.5-.1.7-.1h.7c.1 0 .2 0 .2.1.2.1.4.1.5.3.4.2.7.6.9 1l.3.6v.1c.1.2.1.5.1.7 0 .2 0 .5-.1.7v.1c-.1.2-.1.4-.3.6-.4.9-1.3 1.4-2.3 1.4zm6.4-4.1h-1.1c-.5-1.9-2-3.4-3.9-4v-2.5h5v6.5z" fill="#a8977b"/>
</svg>
