<svg xmlns="http://www.w3.org/2000/svg" viewBox="0 0 40 40">
  <path d="M23.9 15.7c0 2.2-1.7 3.9-3.9 4-2.2 0-3.9-1.7-4-3.9v-.1c0-2.1 1.7-3.9 3.9-3.9s4 1.7 4 3.9zm11.6-.4v.3c0 6.5-8.2 17.4-13.1 23.3-.6.7-1.5 1.1-2.4 1.1-.7 0-1.4-.2-1.9-.7-.2-.1-.3-.3-.4-.4C12.8 33 4.5 22.1 4.5 15.6 4.5 7.1 11.3.1 19.9 0c4.2 0 8 1.5 11 4.4 2.9 2.9 4.5 6.8 4.6 10.9zm-3.5.1c0-3.2-1.3-6.2-3.6-8.5-2.3-2.2-5.3-3.4-8.4-3.4h-.1c-3.2 0-6.2 1.3-8.5 3.6-2.2 2.2-3.5 5.3-3.4 8.5 0 4.5 6.2 13.6 12 20.8 5.9-7.2 12-16.3 12-20.8v-.2z" fill="#a8977b"/>
</svg>
