<svg version="1.1" id="Layer_1" xmlns="http://www.w3.org/2000/svg" x="0" y="0" viewBox="0 0 120.1 34.8" xml:space="preserve">
  <style>
    .st0{fill:#fff}
  </style>
  <path class="st0" d="M45.8 28.5v-2l1.7-.3V8.4l-2-.4V6.2l5.7-.7h.1l.9.7v6.5l-.3 2c.2-.2.5-.5.9-.7.4-.3.8-.5 1.2-.7s1-.4 1.5-.5c.6-.1 1.1-.2 1.8-.2.9 0 1.6.1 2.2.4s1.1.6 1.4 1.1c.3.5.6 1.1.7 1.9.1.8.2 1.7.2 2.7v7.5l1.9.3v2h-8v-1.9l1.4-.3v-7.6c0-.6 0-1.1-.1-1.5s-.2-.7-.3-1c-.2-.3-.4-.4-.7-.6s-.6-.2-1.1-.2c-.3 0-.5 0-.8.1s-.5.1-.8.2-.5.2-.7.3c-.2.1-.4.2-.5.3v9.9l1.8.3v2h-8.1zM65 20.8c0-1.4.2-2.7.6-3.7s1-1.9 1.7-2.6 1.6-1.2 2.5-1.5 2-.5 3-.5c1.2 0 2.2.2 3.1.5s1.7.8 2.4 1.5c.6.7 1.1 1.5 1.5 2.5.3 1 .5 2.2.5 3.5 0 1.5-.2 2.8-.6 3.8-.4 1.1-1 1.9-1.7 2.6s-1.6 1.2-2.5 1.5-2 .5-3 .5c-1.2 0-2.2-.2-3.1-.5s-1.7-.8-2.4-1.5c-.6-.7-1.1-1.5-1.5-2.5s-.5-2.3-.5-3.6zm7.8 6c.4 0 .8-.1 1.1-.3.3-.2.6-.5.8-1 .2-.5.3-1 .4-1.8s.1-1.6.1-2.7 0-2.1-.1-2.9-.2-1.5-.4-2-.5-.9-.8-1.2-.7-.4-1.2-.4c-.4 0-.8.1-1.1.3s-.6.5-.8 1c-.2.5-.4 1-.5 1.8-.1.7-.2 1.6-.2 2.7s0 2.1.1 2.9.2 1.5.5 2 .5.9.8 1.2.8.4 1.3.4zm9.7 1.7v-1.9l1.7-.4V16.1l-1.8-.5v-2.3l5.3-.7h.1l.8.6v1.6c.3-.3.7-.6 1.1-.8.4-.3.9-.5 1.4-.7s1-.4 1.6-.5 1-.2 1.5-.2c1.1 0 1.9.2 2.5.5s1.1.9 1.4 1.7c.3-.2.6-.5 1-.7s.9-.5 1.4-.7 1-.4 1.6-.5 1.1-.2 1.7-.2c.8 0 1.5.1 2.1.3s1 .6 1.4 1 .6 1.1.8 1.9c.2.8.2 1.7.2 2.8v7.5l1.9.4v1.9h-8v-1.9l1.3-.4v-7.4c0-.7 0-1.2-.1-1.7s-.2-.8-.4-1.1c-.2-.3-.4-.5-.6-.6-.3-.1-.6-.2-1-.2-.2 0-.4 0-.7.1s-.5.1-.7.2-.5.2-.7.3-.5.2-.6.3c.1.7.2 1.5.2 2.4V26l1.7.4v1.9h-8.1v-1.9l1.5-.3v-7.6c0-.6 0-1.1-.1-1.5s-.2-.7-.4-1c-.2-.3-.4-.4-.7-.6s-.6-.2-1-.2c-.2 0-.5 0-.8.1s-.5.1-.8.2c-.3.1-.5.2-.7.3s-.4.2-.5.3V26l1.8.4v1.9h-8.3v.2zm29 0v-2l1.9-.3V16.1l-1.8-.6v-2.3l5.5-.7h.1l1.1.6v13l1.9.3v2h-8.7v.1zm3.8-18.1c-.3 0-.7-.1-.9-.2-.3-.1-.5-.3-.7-.5s-.3-.5-.4-.8-.1-.6-.1-.9c0-.4.1-.7.2-1.1s.3-.6.5-.9.5-.4.8-.6.7-.2 1.1-.2.8.1 1.1.2c.3.1.5.3.7.5s.3.5.4.7c.1.3.1.6.1.9 0 .4-.1.8-.2 1.1s-.3.6-.5.9-.5.4-.9.6c-.2.2-.7.3-1.2.3zM31.7 17.2c-.8-1.2-2.2-1.8-3.6-1.7-.3 0-.6 0-.9.1l1.5-5.9c.8-2.9-.6-6-3.3-7.4-5.8-3.1-12.8-3.1-18.6 0-2.6 1.4-4 4.5-3.2 7.4l1.5 5.9c-.4-.1-.8-.1-1.2-.1-2.2 0-3.9 1.8-3.9 3.9 0 .5.1 1 .3 1.5 1.4 3.4 3.8 6.2 6.9 8.1l-2.7 3.6c-.4.6-.3 1.5.3 1.9s1.5.3 1.9-.3l3-4c2.1.9 4.3 1.3 6.5 1.3h.1c2.2 0 4.5-.4 6.5-1.3l3 4c.4.6 1.3.7 1.9.3s.7-1.3.3-1.9L25.2 29c3.1-1.9 5.5-4.7 6.9-8.1.5-1.2.3-2.6-.4-3.7zM8.1 4.7c5-2.7 11.1-2.7 16.1 0 1.6.8 2.4 2.6 1.9 4.3l-2.4 9.1c-4.6 3.2-10.6 3.2-15.2 0L6.2 9c-.4-1.7.4-3.5 1.9-4.3zm21.5 15.2c-2.2 5.4-7.5 9-13.3 8.9h-.1c-5.9 0-11.1-3.5-13.3-8.9-.3-.6 0-1.3.7-1.6.1-.1.3-.1.5-.1.5-.1 1 .1 1.3.5 1.7 2.2 5.9 4.6 11 4.6s9.2-2.4 11-4.6c.2-.3.6-.5 1-.5.5-.1 1 .1 1.3.5 0 .4 0 .8-.1 1.2z"/>
</svg>
