<svg xmlns="http://www.w3.org/2000/svg" width="288.164" height="27.094">
  <path d="M275.181 9.101c2.131-.1 4.457.775 3.972 3.391l-1.356 6.3h-3.1l.194-1.066c-1.647 1.744-5.91 1.647-5.232-2.228.484-2.325 2.81-3 6.3-3 .194-1.066-.484-1.26-1.647-1.26a12.691 12.691 0 00-3 .678l.291-2.228a16.265 16.265 0 013.578-.587zm.194 6.491c0-.291.1-.678.194-.581h-.775c-.678 0-1.55 0-1.938.581-.388.775.194 1.163.872 1.163.775-.097 1.453-.388 1.647-1.163zm6.394-9.4h3.198l-2.616 12.6h-3.1zm-14.436 0c1.647 0 3.682 2.131 3.2 4.941a4.6 4.6 0 01-4.747 3.779h-2.425l-.872 3.875h-3.391l2.519-12.6zm-.1 4.36a1.1 1.1 0 00-1.163-1.453h-1.643l-.678 2.907h1.55a1.978 1.978 0 001.937-1.452zm-22.28-1.451c2.131-.1 4.554.775 4.069 3.391l-1.355 6.297h-3.1l.194-1.066c-1.647 1.744-5.813 1.647-5.135-2.228.484-2.325 2.81-3 6.2-3 .194-1.066-.484-1.26-1.647-1.26a11.587 11.587 0 00-3 .678l.291-2.228a14.4 14.4 0 013.483-.584zm.291 6.491c0-.291.1-.678.194-.581h-.771c-.581 0-1.453 0-1.841.581-.484.775.1 1.163.775 1.163.766-.097 1.449-.388 1.643-1.163zm5.038-6.491h3.1l.484 5.426 3.101-5.426h3.2l-7.366 13.564h-3.488l2.228-4.069zm-12.983-2.907c1.647 0 3.682 2.131 3.1 4.941a4.6 4.6 0 01-4.747 3.779h-2.422l-.872 3.875h-3.391l2.519-12.6zm-.1 4.36a1.1 1.1 0 00-1.163-1.453h-1.643l-.678 2.907h1.552a1.978 1.978 0 001.935-1.454zm48.445-2.325V6.873h-.484v-.194h1.259v.194h-.484v1.356zm.969 0v-1.55h.291l.388 1.066a.338.338 0 00.1.194c0-.1 0-.1.1-.291l.388-1.066h.287v1.55h-.2V6.776l-.484 1.356h-.291l-.484-1.356v1.356h-.1z" fill="#fff" fill-rule="evenodd"/>
  <path d="M173.268 25.693a.807.807 0 10.836-.761.8.8 0 00-.836.761zm2.159-1.333v2.667h-.58V26.7a1.011 1.011 0 01-.842.391 1.4 1.4 0 010-2.8 1.011 1.011 0 01.842.391v-.324zm19.593 1.333a.808.808 0 10.836-.761.8.8 0 00-.836.761zm2.16-2.4v3.737h-.58v-.33a1.011 1.011 0 01-.842.391 1.4 1.4 0 010-2.8 1.011 1.011 0 01.842.391v-1.394zm-14.556 1.518a.687.687 0 00-.709.647h1.384a.662.662 0 00-.675-.647zm.011-.52a1.279 1.279 0 011.266 1.4c0 .078-.006.151-.012.223h-1.984a.741.741 0 00.8.653 1.275 1.275 0 00.776-.279l.284.43a1.621 1.621 0 01-1.093.374 1.4001358 1.4001358 0 01-.039-2.8zm7 1.4a.807.807 0 10.836-.761.8.8 0 00-.836.761zm2.159-1.333v2.667h-.58V26.7a1.012 1.012 0 01-.842.391 1.4 1.4 0 010-2.8 1.012 1.012 0 01.842.391v-.324zm-5.433 1.333a1.347 1.347 0 011.423-1.4 1.4 1.4 0 01.959.318l-.278.469a1.172 1.172 0 00-.7-.24.855.855 0 000 1.708 1.172 1.172 0 00.7-.24l.278.469a1.4 1.4 0 01-.959.318 1.347 1.347 0 01-1.423-1.4zm7.475-1.4a1.236 1.236 0 01.413.073l-.179.547a.941.941 0 00-.363-.067c-.379 0-.569.245-.569.686v1.495h-.581v-2.667h.575v.324a.787.787 0 01.705-.391zm-15.542.281l-.252.469a1.72 1.72 0 00-.831-.229c-.318 0-.508.117-.508.312 0 .179.2.229.452.262l.273.04c.58.084.932.329.932.8 0 .508-.446.87-1.216.87a1.923 1.923 0 01-1.154-.346l.273-.451a1.42 1.42 0 00.887.279c.4 0 .608-.117.608-.324 0-.151-.15-.234-.468-.279l-.274-.039c-.6-.084-.92-.352-.92-.787 0-.53.435-.854 1.111-.854a1.994 1.994 0 011.087.276zm7.481-.279a1.237 1.237 0 01.413.073l-.179.547a.941.941 0 00-.363-.067c-.379 0-.569.245-.569.686v1.495h-.58v-2.668h.575v.324a.785.785 0 01.704-.391zm-4.948.067v.53h-.948v1.2c0 .268.095.446.384.446a1.073 1.073 0 00.513-.151l.167.5a1.361 1.361 0 01-.725.206c-.686 0-.926-.369-.926-.987v-1.215h-.541v-.53h.541v-.809h.586v.809zm-8.67 2.667h-.587v-1.486c0-.452-.189-.7-.585-.7a.629.629 0 00-.653.709v1.479h-.586v-1.488c0-.452-.195-.7-.58-.7a.624.624 0 00-.653.709v1.479h-.585v-2.67h.58v.329a.882.882 0 01.781-.4.979.979 0 01.881.474 1.033 1.033 0 01.937-.474.993.993 0 011.049 1.06zm11.208-25.2c-.076-.064-.107-.111-.1-.153a10.11 10.11 0 110 16.87.275.275 0 01.085-.1 9.475 9.475 0 001.092-1.057 11.067 11.067 0 002.079-3.443 10.623 10.623 0 00.63-2.589 11.007 11.007 0 00-.912-5.736 10.61 10.61 0 00-2.873-3.792zm-4.618 8.268a10.129 10.129 0 013.858-7.956.227.227 0 01.161.066 10.217 10.217 0 012.739 3.463 9.9 9.9 0 01.865 2.7 10.131 10.131 0 01.153 1.9 10.229 10.229 0 01-3.752 7.737.286.286 0 01-.133.072 10.13 10.13 0 01-3.89-7.982zm-12.415-.734a10.128 10.128 0 0115.683-7.682c.006.042-.033.082-.1.133-.182.15-.36.305-.527.47a10.977 10.977 0 00-3.331 7.577 10.724 10.724 0 00.237 2.517 10.945 10.945 0 00.752 2.286 10.788 10.788 0 002.891 3.8.257.257 0 01.071.082 10.127 10.127 0 01-15.703-8.434c0-.232.008-.461.024-.689.003-.021.004-.041.004-.06zM90.524 23.849a1.1 1.1 0 01-1.1-1.1v-6.68a1.1 1.1 0 011.1-1.1h6.417a1.082 1.082 0 01.82.367l1.16 1.288 1.208-1.3a1.1 1.1 0 01.81-.351h5.1a4.412 4.412 0 012.462.612 1.094 1.094 0 01.974-.612h3.686a4.963 4.963 0 012.44.444c.08.047.135.109.211.163a1.094 1.094 0 01.974-.607h5.327a1.085 1.085 0 01.949.576 3.662 3.662 0 012.1-.576h3.2a1.089 1.089 0 011.028.736 3.544 3.544 0 012.3-.736h3.2a1.1 1.1 0 011.1 1.1v1.422a1.1 1.1 0 01-.5.926.436.436 0 01.035.032 2.945 2.945 0 01.8 2.187c0 2.009-1.347 3.209-3.608 3.209h-3.127a1.1 1.1 0 01-1.013-.67 4.081 4.081 0 01-2.4.67h-3.106a1.079 1.079 0 01-.479-.119 1.094 1.094 0 01-.479.119h-5.326a1.091 1.091 0 01-.486-.125 1.05 1.05 0 01-.488.125h-1.6a1.1 1.1 0 01-1.1-1.1v-.975-.357c-.075 0-.178-.01-.325-.01h-.6v1.339a1.1 1.1 0 01-1.1 1.1h-1.6a1.1 1.1 0 01-1.1-1.1v-1.7a4.668 4.668 0 01-2.426.559h-.887v1.14a1.1 1.1 0 01-1.1 1.1h-3.1a1.1 1.1 0 01-.847-.371l-1.156-1.3-1.218 1.32a1.1 1.1 0 01-.809.355zm26.262-1.1h5.327v-1.388l-3.737-.008v-1.325h3.645v-1.364h-3.647v-1.216h3.739v-1.38h-5.327zm-4-2.437c.585 0 .939.056 1.168.294.3.311.26.907.26 1.308v.836h1.6v-1.328a1.935 1.935 0 00-.265-1.218 1.7 1.7 0 00-.778-.561 1.877 1.877 0 001.131-1.779 1.565 1.565 0 00-.82-1.482 3.956 3.956 0 00-1.92-.313h-3.687v6.677h1.6v-2.438zm-11.932 2.431h3.1v-2.24h1.99c1.4 0 2.779-.382 2.779-2.234s-1.424-2.2-2.69-2.2h-5.1l-2.03 2.19-1.966-2.19h-6.413v6.678h6.321l2.043-2.209zm28.739 0h3.108c1.6.008 2.5-.663 2.5-2.1a1.864 1.864 0 00-.479-1.416 2.594 2.594 0 00-1.823-.537l-.857-.025a1.851 1.851 0 01-.622-.076.561.561 0 01-.107-.979 1.078 1.078 0 01.641-.122h2.926v-1.42h-3.2c-1.675 0-2.281 1.016-2.281 1.988 0 2.111 1.869 2.017 3.36 2.065a.837.837 0 01.569.148.564.564 0 01.194.44.593.593 0 01-.187.437.916.916 0 01-.649.165h-3.1zm-6.52 0h3.108c1.6.008 2.5-.663 2.5-2.1a1.854 1.854 0 00-.479-1.416 2.588 2.588 0 00-1.82-.537l-.857-.025a1.846 1.846 0 01-.622-.076.56.56 0 01-.107-.979 1.078 1.078 0 01.64-.122h2.927v-1.42h-3.2c-1.675 0-2.281 1.016-2.281 1.988 0 2.111 1.87 2.017 3.36 2.065a.841.841 0 01.569.148.564.564 0 01.194.44.593.593 0 01-.187.437.922.922 0 01-.65.165h-3.096zm-23.16-3.325l2.451-2.631v5.353zm-7.8 1.937v-1.329h3.5v-1.363h-3.5V17.45h4l1.745 1.943-1.823 1.962zm11.839-2.207v-1.7h2.08c.577 0 .974.234.975.821s-.382.88-1 .88zm7.122-.2v-1.5h1.965a1.569 1.569 0 01.761.121.642.642 0 01.333.6.722.722 0 01-.33.642 1.55 1.55 0 01-.791.136zm-21.407-6.593a1.1 1.1 0 01-1.008-.656l-.209-.474v.026a1.1 1.1 0 01-1.1 1.1h-3.248a1.1 1.1 0 01-1.02-.677l-.332-.806h-1.849l-.336.806a1.1 1.1 0 01-1.015.679h-1.737a1.1 1.1 0 01-1.011-1.534l2.857-6.677a1.1 1.1 0 011.014-.668h2.368a1.1 1.1 0 011.014.667l.6 1.4v-.967a1.1 1.1 0 011.101-1.1h2.605a1.107 1.107 0 011 .641l1.044 2.266.949-2.233a1.1 1.1 0 011.013-.674h2.66a1.081 1.081 0 01.595.2 1.076 1.076 0 01.591-.2h5.33a1.064 1.064 0 01.552.17 1.079 1.079 0 01.556-.17h3.67a4.694 4.694 0 012.485.466 2.194 2.194 0 01.2.155 1.1 1.1 0 01.98-.621h1.627a1.088 1.088 0 011.069.937 4.378 4.378 0 013-.937h1.541a1.1 1.1 0 01.661.219 1.092 1.092 0 01.656-.219h2.391a1.1 1.1 0 011.012.669l.586 1.371v-.94a1.1 1.1 0 011.1-1.1h2.434a1.108 1.108 0 01.943.532l.758 1.258v-.69a1.1 1.1 0 011.1-1.1h1.633a1.1 1.1 0 011.1 1.1v6.679a1.1 1.1 0 01-1.1 1.1h-2.256a1.106 1.106 0 01-.945-.532l-.983-1.622v1.054a1.1 1.1 0 01-1.1 1.1h-3.245a1.1 1.1 0 01-1.018-.679l-.337-.808h-1.839l-.325.8a1.1 1.1 0 01-1.016.69h-1.87a4.627 4.627 0 01-2.887-.888 1.088 1.088 0 01-1.061.888h-1.63a1.086 1.086 0 01-.5-.133 1.073 1.073 0 01-.494.133h-1.61a1.1 1.1 0 01-1.1-1.094l-.006-.842v-.147-.337c-.073 0-.171-.009-.31-.009h-.61v1.327a1.1 1.1 0 01-1.1 1.1h-1.6a1.076 1.076 0 01-.554-.17 1.065 1.065 0 01-.552.17h-5.336a1.083 1.083 0 01-.595-.2 1.088 1.088 0 01-.595.2h-1.632a1.1 1.1 0 01-1.1-1.1v-.026l-.211.472a1.1 1.1 0 01-1.008.657zm38.573-1.1h2.26V4.574h-1.633v4.65l-2.804-4.65h-2.432v6.316l-2.7-6.316h-2.391l-2.254 5.25h-.715a1.543 1.543 0 01-1.112-.345 2.3 2.3 0 01-.44-1.566 2.2 2.2 0 01.458-1.513 1.532 1.532 0 011.227-.4h1.509V4.574h-1.54a3.233 3.233 0 00-2.424.778 3.584 3.584 0 00-.855 2.613 3.35 3.35 0 00.856 2.549 3.345 3.345 0 002.309.738h1.869l.6-1.489h3.317l.622 1.489h3.246V6.241zm-18.254 0h1.627V4.574h-1.63zm-7.338 0h1.6V8.823h1.71a1.563 1.563 0 011.163.285 2.007 2.007 0 01.251 1.3l.008.842h1.61V9.941a1.91 1.91 0 00-.265-1.224 1.862 1.862 0 00-.79-.562 1.88 1.88 0 001.123-1.781 1.558 1.558 0 00-.807-1.479 3.751 3.751 0 00-1.932-.32h-3.67zm-6.434 0h5.33V9.874h-3.731V8.537h3.646V7.169h-3.646v-1.2h3.735V4.574h-5.335zm-2.825 0h1.636V4.574h-2.66l-1.917 4.53-2.088-4.53h-2.605v6.323l-2.716-6.323H80.67l-2.857 6.678h1.734l.62-1.489h3.321l.614 1.489h3.248V6.018l2.318 5.234h1.4l2.315-5.229zm21.863-4.064a1.62 1.62 0 00-.127.724 1.7 1.7 0 00.127.778 1.3 1.3 0 00.314.032l.693-1.616h-.546c-.376-.001-.415.038-.461.082zm3.352 1.183l1.1-2.661 1.103 2.661zm-37.868 0l1.084-2.663 1.093 2.663zm23.51-.923V5.967h1.967a1.652 1.652 0 01.756.121.61.61 0 01.335.59.686.686 0 01-.329.634 1.5 1.5 0 01-.789.137z" fill="#fff"/>
  <g fill="#fff" fill-rule="evenodd">
    <path d="M41.769 13.143h-.839a.334.334 0 00-.1.009.043.043 0 00-.022.016.138.138 0 00-.106-.026h-.975a.138.138 0 00-.105.025l-.007-.01a.239.239 0 00-.1-.012h-.365c-.083 0-.091-.013-.062-.091.076-.205.146-.413.223-.618a.194.194 0 00.018-.094v-.007c.032-.017.038-.053.049-.083.125-.345.252-.69.376-1.036.01-.027.025-.054 0-.083.034 0 .039-.034.047-.057.212-.585.43-1.167.629-1.757a.156.156 0 00.014-.079c.036-.009.038-.045.049-.072.169-.455.332-.912.5-1.369a.148.148 0 00.01-.052c.006.017.009.036.013.054a1.848 1.848 0 00.083.336v.007a.1.1 0 000 .074c.011.064.024.128.038.192q.419 2.012.841 4.025c.051.241.091.485.157.723a.082.082 0 01.012 0 .276.276 0 00-.236 0 .087.087 0 00-.026-.017.4.4 0 00-.105-.008m4.939 5.127c-.135-.642-.267-1.284-.4-1.926-.1-.462-.195-.923-.292-1.384a.043.043 0 000-.008l-1.243-5.959q-.542-2.589-1.08-5.179c-.013-.06-.031-.078-.093-.078H40.46a.4.4 0 00-.153.013 1.525 1.525 0 00-.75.243c-.026.014-.053.027-.077.043a1.808 1.808 0 00-.689.934l-.737 1.743c-.031.071-.064.142-.093.214l-.382.925c-.046.106-.094.212-.139.319l-.462 1.112a.482.482 0 00-.059.131l-.542 1.3c-.025.057-.051.113-.074.17l-.388.937c-.083.193-.167.386-.248.58l-.5 1.2c-.035.081-.073.162-.106.244l-.48 1.157c-.207.475-.406.953-.6 1.433a.094.094 0 00-.015.019q-.375.9-.749 1.8a.181.181 0 00-.029.089h3.787a.482.482 0 01.056 0c.084.016.12-.02.148-.1.087-.261.186-.517.28-.777.1-.282.2-.564.3-.847.048-.126.1-.251.141-.379a.094.094 0 01.11-.075h.431q.562.011 1.124 0 .578.011 1.157 0 .594.011 1.189 0c.258 0 .515.006.773 0 .069 0 .092.023.1.084.141.683.284 1.365.424 2.047.008.039.024.049.059.049h3.384c.058 0 .058-.018.048-.066M16.441 6.818c.077-.18.155-.361.231-.542.123-.3.245-.592.367-.889a3.674 3.674 0 00.16-.378 1.941 1.941 0 00.115-.277l.423-.99h-3.902c-.022 0-.049-.012-.066.014l-.134.342c-.085.211-.171.42-.254.631-.118.3-.234.6-.35.9-.125.31-.251.62-.374.93-.111.281-.22.563-.329.844-.213.514-.415 1.03-.614 1.549-.046.111-.093.222-.137.333l-.418 1.067-.586 1.482c-.025.06-.051.119-.075.179l-.512 1.3-.143.344c-.007-.02-.013-.04-.018-.06-.061-.327-.121-.654-.184-.98-.052-.273-.106-.546-.159-.819a.545.545 0 000-.056l-.223-1.158Q8.978 9.091 8.7 7.597c-.152-.8-.3-1.61-.458-2.412A1.746 1.746 0 006.5 3.738H.158c-.024 0-.054-.015-.074.015-.026.122-.053.243-.084.364 0 .028 0 .047.03.058l.615.138a.09.09 0 00.021.011c.491.122.977.261 1.457.423l.448.151a9.308 9.308 0 011.338.616 1.7 1.7 0 01.371.345 2.235 2.235 0 01.312.751q.34 1.3.678 2.607l1.553 6.01q.394 1.522.785 3.045a.074.074 0 00.087.066h3.88c.026 0 .045 0 .056-.033.047-.121.1-.24.145-.359.067-.155.136-.311.2-.467.134-.322.267-.644.4-.966.008-.013.015-.027.022-.042l.565-1.358c.012-.025.025-.048.035-.072l.552-1.328c.089-.208.18-.416.267-.626.119-.284.236-.569.353-.854.079-.184.159-.366.236-.55.129-.309.256-.619.383-.928a.267.267 0 00.048-.122l.065-.147c.011-.021.022-.042.033-.064l.587-1.414c.133-.313.268-.625.4-.939.174-.414.345-.829.517-1.244M23.133 3.738h-3.72c-.022 0-.059-.017-.06.03l-.049.228c0 .016-.011.031-.014.047q-.166.773-.33 1.547c-.055.261-.109.524-.163.786a.054.054 0 00-.007.015q-.158.741-.316 1.484a4.149 4.149 0 00-.086.417c-.046.162-.076.328-.109.495l-.31 1.45c-.031.139-.064.279-.093.42l-.234 1.114a.319.319 0 00-.017.045q-.137.642-.272 1.285l-.22 1.029c-.041.187-.084.374-.124.562l-.3 1.409c-.025.114-.051.227-.076.34l-.388 1.83c-.007.034-.019.062.037.062H19.954c.033 0 .046-.008.052-.042.012-.063.03-.124.046-.186.07-.319.141-.638.211-.958.041-.19.078-.38.117-.57a.291.291 0 00.013-.035l.309-1.467.1-.44.087-.418c.016-.063.033-.125.046-.188l.279-1.33a.162.162 0 00.007-.028q.172-.8.341-1.594c.052-.245.1-.492.151-.738a.166.166 0 00.013-.03q.213-.988.423-1.976c.069-.325.136-.651.2-.977a.175.175 0 00.011-.03l.6-2.8c.056-.259.11-.518.166-.783M34.006 4.095c-.075-.021-.148-.052-.222-.076a9.668 9.668 0 00-1.205-.328c-.029-.007-.053-.018-.079-.018a9.829 9.829 0 00-1.779-.2l-.393.006v-.006c-.216.012-.432.02-.648.036a3.709 3.709 0 00-.511.064 6.067 6.067 0 00-1.038.213 5.583 5.583 0 00-1.081.387 4.8 4.8 0 00-.912.516 4.341 4.341 0 00-.864.754 1.82 1.82 0 00-.206.238 3.834 3.834 0 00-.527.87c-.01.019-.021.037-.031.057a4.187 4.187 0 00-.335 1.3 3.384 3.384 0 00.2 1.6 3.9 3.9 0 001.028 1.435 6.059 6.059 0 001.08.793.531.531 0 00.046.032c.3.184.621.348.939.507.143.071.288.141.431.211.152.087.305.172.456.26a3.551 3.551 0 01.678.5 1.205 1.205 0 01.384.707V14.196a1.207 1.207 0 01-.315.667 2.038 2.038 0 01-.6.392c-.137.059-.28.1-.421.146a4.68 4.68 0 01-1.134.114l-.462-.013a7.7 7.7 0 01-1.252-.183c-.186-.046-.371-.1-.556-.147-.19-.071-.381-.139-.57-.213-.257-.1-.507-.22-.757-.336-.023-.011-.06-.053-.073.01-.061.289-.12.577-.18.866a.266.266 0 00-.014.038q-.233 1.1-.469 2.192a.062.062 0 00.043.085 7.091 7.091 0 001.054.355 3.1 3.1 0 00.444.1 2.732 2.732 0 00.341.073 8.373 8.373 0 00.86.124c.027.014.059 0 .085.014H25.511a.148.148 0 00.068.009h.087c.033.016.069 0 .1.012h.076a.086.086 0 00.04 0 .215.215 0 00.056.008l.758.036v.028h.326v-.01l.033-.005a1.039 1.039 0 00.188 0h.219a.329.329 0 00.136-.012h.054a8.689 8.689 0 00.991-.124 4.153 4.153 0 00.541-.121 5.615 5.615 0 001.074-.346 5.442 5.442 0 00.716-.357c.03.005.049-.018.072-.031a5.263 5.263 0 00.84-.623.083.083 0 00.02-.01 4.223 4.223 0 00.8-.962c.011-.015.023-.03.032-.046a4.5 4.5 0 00.62-2.608 3.36 3.36 0 00-.952-2.171 7.57 7.57 0 00-2.049-1.445c-.494-.273-1-.52-1.482-.818-.021-.016-.042-.033-.064-.048a2.223 2.223 0 01-.547-.494.85.85 0 01-.171-.681 1.16 1.16 0 01.164-.386 1.8 1.8 0 01.911-.591 4.26 4.26 0 01.749-.131.433.433 0 00.067-.005h.018a.428.428 0 00.067-.005h.239l.563.02c.028.013.06 0 .087.012h.077c.027.014.059 0 .086.012a1.515 1.515 0 00.29.037.242.242 0 00.034.011 7.2 7.2 0 01.925.211 7.728 7.728 0 01.965.358c.024.011.059.048.071-.013l.171-.826a.25.25 0 00.014-.037l.172-.8q.14-.66.285-1.318c.011-.052 0-.078-.053-.093"/>
  </g>
</svg>
